<svg xmlns="http://www.w3.org/2000/svg" viewBox="0 0 16 16" id="microsoft-excel"><path d="M15.5 2H9V.5a.499.499 0 0 0-.592-.491l-8 1.5A.499.499 0 0 0 0 2v11a.5.5 0 0 0 .408.491l8 1.5A.498.498 0 0 0 9 14.5V13h6.5a.5.5 0 0 0 .5-.5v-10a.5.5 0 0 0-.5-.5zM6.829 9.876a.498.498 0 0 1-.705-.047L4.67 8.168l-1.275 1.64a.502.502 0 0 1-.702.087.501.501 0 0 1-.088-.702l1.394-1.792-1.375-1.572a.5.5 0 1 1 .753-.658l1.248 1.426 1.481-1.904a.5.5 0 0 1 .789.615l-1.6 2.056 1.581 1.807a.5.5 0 0 1-.047.705zM15 12H9v-1h1.5a.5.5 0 0 0 0-1H9V9h1.5a.5.5 0 0 0 0-1H9V7h1.5a.5.5 0 0 0 0-1H9V5h1.5a.5.5 0 0 0 0-1H9V3h6v9z"></path><path d="M12.5 5h1a.5.5 0 0 0 0-1h-1a.5.5 0 0 0 0 1zM12.5 7h1a.5.5 0 0 0 0-1h-1a.5.5 0 0 0 0 1zM12.5 9h1a.5.5 0 0 0 0-1h-1a.5.5 0 0 0 0 1zM12.5 11h1a.5.5 0 0 0 0-1h-1a.5.5 0 0 0 0 1z"></path></svg>